<?xml version="1.0" encoding="UTF-8"?>
<svg id="Calque_1" data-name="Calque 1" xmlns="http://www.w3.org/2000/svg" viewBox="0 0 460.95 432.59">
  <defs>
    <style>
      .cls-1 {
        fill: #d3d3d3;
      }

      .cls-1, .cls-2, .cls-3, .cls-4, .cls-5, .cls-6, .cls-7, .cls-8, .cls-9, .cls-10, .cls-11, .cls-12, .cls-13, .cls-14, .cls-15, .cls-16, .cls-17, .cls-18, .cls-19, .cls-20, .cls-21, .cls-22, .cls-23, .cls-24, .cls-25, .cls-26, .cls-27, .cls-28, .cls-29, .cls-30, .cls-31, .cls-32, .cls-33, .cls-34, .cls-35, .cls-36, .cls-37, .cls-38, .cls-39 {
        stroke-width: 0px;
      }

      .cls-2 {
        fill: #d9803c;
      }

      .cls-40, .cls-41, .cls-42, .cls-43, .cls-44, .cls-45, .cls-46, .cls-47, .cls-48, .cls-49, .cls-50, .cls-51, .cls-52, .cls-53, .cls-54, .cls-55, .cls-56, .cls-57, .cls-58, .cls-59, .cls-60, .cls-61, .cls-62, .cls-63, .cls-64, .cls-65, .cls-66 {
        stroke: #000;
        stroke-miterlimit: 10;
      }

      .cls-40, .cls-8 {
        fill: #ffd3be;
      }

      .cls-41 {
        fill: #ffb99e;
      }

      .cls-42 {
        fill: #e4f7f3;
      }

      .cls-3 {
        fill: #333039;
      }

      .cls-4 {
        fill: #000;
      }

      .cls-5 {
        fill: #de6462;
      }

      .cls-43 {
        fill: #565368;
      }

      .cls-6, .cls-57 {
        fill: #050503;
      }

      .cls-44, .cls-32, .cls-35 {
        fill: #fff;
      }

      .cls-7, .cls-56 {
        fill: #d67c3e;
      }

      .cls-45, .cls-19 {
        fill: #2d2a33;
      }

      .cls-9 {
        fill: #afc9c0;
      }

      .cls-10 {
        fill: #5a6cae;
      }

      .cls-11 {
        fill: #5b5964;
      }

      .cls-46, .cls-28 {
        fill: #acc1bc;
      }

      .cls-47, .cls-48, .cls-50, .cls-51 {
        fill: none;
      }

      .cls-47, .cls-61, .cls-62 {
        stroke-width: 1.5px;
      }

      .cls-12 {
        fill: #905219;
      }

      .cls-49 {
        fill: #fac42c;
      }

      .cls-13 {
        fill: #159f0e;
      }

      .cls-14 {
        fill: #cc906e;
      }

      .cls-50 {
        stroke-width: .5px;
      }

      .cls-15 {
        fill: #be7a0b;
      }

      .cls-51, .cls-58 {
        stroke-width: .75px;
      }

      .cls-16 {
        fill: #5da345;
      }

      .cls-17 {
        fill: #2e2739;
      }

      .cls-52 {
        fill: #3f101a;
      }

      .cls-53 {
        fill: #96d759;
      }

      .cls-54 {
        fill: #ffccab;
      }

      .cls-18 {
        fill: #542a5e;
      }

      .cls-55 {
        fill: #312f3d;
      }

      .cls-20 {
        fill: #925119;
      }

      .cls-21 {
        fill: #efca95;
      }

      .cls-22 {
        fill: #a83441;
      }

      .cls-23 {
        fill: #cf9272;
      }

      .cls-24 {
        fill: #24232b;
      }

      .cls-25, .cls-59 {
        fill: #f7f4c1;
      }

      .cls-26 {
        fill: #af3540;
      }

      .cls-58 {
        fill: #ffc7aa;
      }

      .cls-27 {
        fill: #b1c8c0;
      }

      .cls-29 {
        fill: #fafcb1;
      }

      .cls-30 {
        fill: #c90000;
      }

      .cls-31, .cls-66 {
        fill: #d19172;
      }

      .cls-33 {
        fill: #fff5fb;
      }

      .cls-60 {
        fill: #f34566;
      }

      .cls-34 {
        fill: #ddffb2;
      }

      .cls-61 {
        fill: #e2f7f2;
      }

      .cls-62 {
        fill: #565565;
      }

      .cls-35 {
        opacity: .66;
      }

      .cls-36 {
        fill: #cc9171;
      }

      .cls-63, .cls-37 {
        fill: #565366;
      }

      .cls-64 {
        fill: #d18d76;
      }

      .cls-65 {
        fill: #e87773;
      }

      .cls-38 {
        fill: #8c3c3a;
      }

      .cls-39 {
        fill: #7c4387;
      }
    </style>
  </defs>
  <path class="cls-30" d="M389.18,262.43s44.9-21.16,58.35-78.72,2.57-113.39-33.04-148.55c-15-14.81-33.02-23.09-48.85-27.7-.44-.13-.95-.28-1.52-.44-.41-.12-.85-.24-1.33-.37C339.15.19,326.28,0,326.28,0H45.53v393.58h122.77v-110.25h100.22l58.53,110.25h130.57l-68.44-131.15ZM291.07,172.34h-122.77v-64.65h121.51c.42,0,.84.01,1.26.03,17.28.66,31.08,14.87,31.08,32.31s-13.8,31.65-31.08,32.31Z"/>
  <g>
    <g>
      <g>
        <g>
          <path class="cls-48" d="M94.99,148.39s-7.26,28.23-2.1,39.83c0,0,4.37,22.42,3.05,25.05"/>
          <path class="cls-48" d="M92.51,187.27c3.96-2.92,9.49-13.95,9.49-13.95"/>
          <g>
            <path class="cls-61" d="M85.08,150.54s-.47,1.22-2.2,3.26c-2.25,2.65-12.66,27.82-12.66,27.82,0,0-3.43,2.24-3.16,5.54l-2.32,4.12-26.95,52.98s1.85,21.23,5.27,24.26,13.85,5.93,15.96,7.25,15.96,13.71,15.96,13.71c0,0,3.03,5.41,8.84,2.11s16.09-14.37,15.69-17.54-2.64-4.75-2.77-9.89-.26-9.63-3.82-10.42-8.7-.66-9.76-2.11-5.8-5.01-5.41-5.93,14.64-27.82,14.64-27.82l3.56-4.62s1.19,40.12,1.48,45.66,2.18,15.03,5.84,24.63,8.51,23.21,8.51,23.21c0,0,1.32,10.02,1.85,12.4s14.14,7.91,20.26,3.43,11.99-6.86,13.27-9.23,1.9-3.69-1.57-12.92-5.32-21.1-5.58-23.21,1.58-6.07.26-9.23-5.38-7.38-6.38-10.55-2.06-52.75-2.06-52.75c0,0-.95-12.73,3.05-21.63,0,0-.06-25.04-.99-31.31s-48.76-5.28-48.78-1.23Z"/>
            <path class="cls-28" d="M97.59,178.46c-.33-.06-15.53-.36-15.69,1.05s1.62,5.74,3.33,7.25,7.22,10.09,7.29,11.8.53,12.46-2.51,17.21-15.69,20.57-15.43,24.53-2.64,16.88-7.12,19.78-3.43,4.22,0,4.75,12.54,4.22,14.32,0-1.45-9.23.55-9.23,11.9,3.47,10.64,11.23,1.21,9.87-5.42,13.56-8.75,8.18-8.22,10.29,3.43.73,4.75,0,9.23-8.04,10.42-9.56c1.38-1.45,4.35-5.47,4.42-6.26s-.2-1.38-1.12-3.76-2.11-6.53-1.98-9.43-.2-6.66-3.16-7.25-6.86-.92-8.04-1.32-3.23-1.85-4.55-3.82c-1.71-1.45-2.84-2.9-2.84-2.9,0,0-.59-.59.66-1.85.92-2.18,10.95-21.16,10.95-21.16l2.97-5.8,3.89-4.75s.07-3.89-.2-6.13-1.58-13.12.2-14.04,1.19-2.51.99-2.51-3.2,1.05-3.05-.13,5.69-11.21,3.97-11.54Z"/>
            <path class="cls-28" d="M89.01,149.28s-2.87.57-.59,2.55,35.14-2.57,36.91,2.47,2.95,20.83,2.36,26.53-9.2,13.52-5.44,14.31,4.06,3.26,3.86,7.62-1.82,42.56-1.82,42.56c0,0-.15,8.04,3.55,13.58s.93,6.99,2.12,8.97,4.88,14.24,5.93,16.48,3.03,12.66,4.62,17.14,4.22,7.91,0,10.81-7.12,6.07-10.55,5.54-9.44,3.43-11.05,2.11-5.3-3.43-5.3-2.11,5.77,5.37,12.59,5.57c0,0,3.71.67,5.96-.72s11.67-7.32,11.79-7.42,3.61-2.94,3.51-4.77-.05-2.79-.87-5.09-3.81-11.2-3.81-11.2l-3.04-13.77s-.69-3.41-.45-4.35,1.09-5.93.59-7.22-5.84-8.95-6.13-9.69-.54-1.14-.79-3.56-1.83-44.65-1.83-44.65c0,0,0-12.56.3-16.32s2.72-11.57,2.72-11.57l-.02-6.92s-.09-24.4-.88-24.92-9.96-5.79-44.24-1.95Z"/>
            <path class="cls-4" d="M78.48,245.86c1.04,1.36,1.26,3.07.95,4.69-.11.82-.04,1.77-.59,2.49-1.21,1.48-2.59,2.68-4.33,3.55,0,0-.07-.07-.07-.07.56-.95,1.26-1.76,2.01-2.52.68-.72,1.69-1.27,2.27-2.01.59-.89.36-2.03.03-2.98-.21-1.01-.36-2.02-.37-3.13l.09-.03h0Z"/>
            <path class="cls-4" d="M81.37,253.75c1,.33,1.07,1.32.83,2.12-.02.26.05.51.12.77.31,1.08.2,2.06-.48,2.98,0,0-.1,0-.1,0-.51-1.01-.4-2.02.03-2.99.26-.5.05-.99-.25-1.4-.18-.44-.2-.83-.23-1.41l.07-.07h0Z"/>
            <path class="cls-28" d="M121.26,279.34c-3.03-1.58,0-2.11-8.31-5.01s-12.4-4.62-10.29-1.05,2.11,7.38,8.31,8.18,13.98,3.96,12.13.92l-1.85-3.03Z"/>
          </g>
        </g>
        <g>
          <g>
            <polygon class="cls-66" points="158.57 61 158.94 73.2 142.33 75.6 142.08 65.89 158.57 61"/>
            <path class="cls-54" d="M134.82,69.46s-13.84-7.96-13.99-9.66-1.18-11.17-2.44-15.24.85-19.4,5.16-23.91c4.31-4.51,10.9-8.87,17.26-8.58s22.87,4.37,24.87,12.51,1.85,15.1.89,18.43.96,11.77-3.7,15.39c-4.66,3.63-19.24,12.39-19.24,12.39,0,0-3.55,1.22-8.81-1.33Z"/>
            <path class="cls-31" d="M162.22,19.99s-4.33-1.22-4.38.67,9.27,18.19,3.5,27.3c-5.77,9.11-9.21,19.38-14.26,20.35,0,0,17.65-10.02,18.26-14.18s1-10.99,1.22-12.82,2.5-16.43-4.33-21.31Z"/>
            <path class="cls-33" d="M158.1,33.75s-4.01-.89-7.26,1.1-4.26,2.81-4.26,2.81c0,0,.53,5.05,1.01,5.19s7.22.63,7.22.63c0,0,2.54-2.3,3.4-7l1.01-2.62-1.11-.11Z"/>
            <path class="cls-16" d="M152.89,34.04l-4.61,2.12s.43,6.58,1.15,6.75,2.43,0,2.43,0c0,0,1.78-5.77,1.03-8.87Z"/>
            <path class="cls-33" d="M152.73,36.98s-3.57,3.77-3.88,2.96-.48-3.67-.48-3.67l4.33-1.79.02,2.5Z"/>
            <path class="cls-4" d="M146.14,38.07c3.2-4.17,8.74-6.07,13.85-5.01,0,0,1.06.15,1.06.15l-.71.72c-.98,1.01-1.88,2.17-2.38,3.54-.04-.76.17-1.52.45-2.23.31-.71.67-1.37,1.17-2l.35.86c-5.01-.52-9.73,1.06-13.79,3.98h0Z"/>
            <path class="cls-50" d="M152.89,34.58s.66,5.48-1.16,8.55"/>
            <path class="cls-50" d="M148.28,36.33c0,.07.45,6.32,1.15,6.58"/>
            <path class="cls-4" d="M147.77,42.89c2.39-.45,4.96-.45,7.22.52,0,0-.2.07-.2.07.28-.32.55-.65.85-.96-.18.43-.41.82-.61,1.24-2.41-.4-4.84-.36-7.26-.87h0Z"/>
            <path class="cls-4" d="M152.95,36.75c-.72,1.15-1.66,2.15-2.8,2.89-.38.22-.82.51-1.29.42.43-.12.73-.45,1.06-.73.96-.87,1.95-1.83,3.03-2.58h0Z"/>
            <path class="cls-4" d="M145.5,36.62c1.06-1.13,2.38-2.03,3.81-2.58-1.11,1.16-2.33,2-3.81,2.58h0Z"/>
            <path class="cls-4" d="M143.81,35.95c2.03-1.82,4.06-3.74,6.6-4.83,2.56-.86,5.11-1.74,7.74-2.44-3.67,1.76-7.74,2.41-11.02,4.93,0,0-3.31,2.35-3.31,2.35h0Z"/>
            <path class="cls-33" d="M120.58,35.4l.56,1.51s.01.04.02.06c.12.42,1.5,5.33,2.13,6.08.38.46.81.76,1.1.94.2.12.45.16.68.09l4.97-1.41c.33-.09.58-.38.61-.72.07-.64.09-1.9-.2-4.28-.03-.27-.19-.51-.42-.64-1.19-.67-6.15-2.63-9.7-2.7-.6-.01.05.52.26,1.08Z"/>
            <path class="cls-32" d="M125.72,34.83l.13,4.4s2.64.23,2.83-.84.11-2.53-.97-3.07c-1.44-.73-2-.49-2-.49Z"/>
            <polygon class="cls-16" points="125.98 39.31 128.9 38.49 129.06 42.6 126.45 43.48 125.98 39.31"/>
            <path class="cls-4" d="M130.72,37.39c-3.47-2.46-7.86-2.81-11.98-3.06,0,0,.24-.97.24-.97,1.34.95,2.2,2.43,2.38,4.03-.68-1.29-1.63-2.45-2.89-3.13,0,0-1.7-.82-1.7-.82,4.79-.5,10.86-.32,13.95,3.95h0Z"/>
            <path class="cls-4" d="M122.95,42.45c.58.46,1.13.95,1.63,1.47l-.33-.09c2.05-.87,4.22-1.62,6.48-1.53,0,0-3.13,1.09-3.13,1.09-1.11.37-2.23.74-3.36,1.06-.48-.63-.91-1.3-1.29-2.01h0Z"/>
            <path class="cls-50" d="M126.61,43.13c-.93-.43-.89-8.53-.89-8.53"/>
            <path class="cls-50" d="M128.68,35.95s.84,6.13.17,6.72"/>
            <path class="cls-4" d="M129.18,38.25c-.71.63-1.57,1.04-2.49,1.19-.3.03-.67.1-.94-.12,1.18-.22,2.19-.95,3.44-1.07h0Z"/>
            <path class="cls-23" d="M135.82,44.93c-.08-.02-1.33.48-1.33.48,0,0-.04,3.26-.85,3.52,0,0,2.11,1.92,2,2.7s5.77-2.07,3.44-4-2.12-2.44-3.26-2.7Z"/>
            <path class="cls-4" d="M134.69,44.11c.15,1.47.21,3-.27,4.42-.11.2-.19.47-.56.61l.1-.42c.67.63,1.3,1.33,1.71,2.16.12.28.23.61.13.91,0-.31-.15-.57-.31-.8-.59-.81-1.37-1.48-2.12-2.14,0,0,.38-.17.38-.17.76-1.2.65-3.13.95-4.56h0Z"/>
            <path class="cls-5" d="M145.29,53.31l-13.75,2.16s8.45,13.12,11.25,11.97c0,0,4.5-7.83,2.5-14.13Z"/>
            <polygon class="cls-38" points="138.3 54.12 134.81 60.78 131.7 55.62 138.3 54.12"/>
            <path class="cls-51" d="M132.08,55.73s12.88-2.89,13.49-2.05-.42,13.88-2.93,13.49-4.68-1.22-10.56-11.43Z"/>
            <path class="cls-58" d="M138.53,54.42s-3.28,4.62-3.28,6.42"/>
            <path class="cls-48" d="M134.82,69.46s-13.84-7.96-13.99-9.66-1.18-11.17-2.44-15.24.85-19.4,5.16-23.91c4.31-4.51,10.9-8.87,17.26-8.58s22.87,4.37,24.87,12.51,1.85,15.1.89,18.43.96,11.77-3.7,15.39c-4.66,3.63-19.24,12.39-19.24,12.39,0,0-3.55,1.22-8.81-1.33Z"/>
            <ellipse class="cls-35" cx="128.68" cy="19.48" rx="2.82" ry=".81" transform="translate(15.36 83.47) rotate(-38.06)"/>
            <path class="cls-31" d="M163.6,45.7s1.21-4.17,2.6-3.18,3.54,4.99,2.2,8.21-3.11,5.66-3.11,5.66c0,0-2.58,3.63-2.39.52s-.11-3.29.48-4.07c0,0-.4-5.07.21-7.14Z"/>
            <path class="cls-51" d="M163.6,45.7s1.21-4.17,2.6-3.18,3.54,4.99,2.2,8.21-3.11,5.66-3.11,5.66c0,0-2.58,3.63-2.39.52s-.11-3.29.48-4.07.64-1.93.59-2.57-.03-.18.47-1.93,2.57-4,2.39,0"/>
            <path class="cls-4" d="M127.24,33.55c1.05.12,2.05.51,2.88,1.15.25.22.61.49.57.89-.15-.31-.5-.41-.78-.57-.9-.44-1.86-.86-2.67-1.47h0Z"/>
            <path class="cls-4" d="M120.32,29.98c2.92.26,5.84.91,8.48,2.22.87.45,1.75,1.01,2.28,1.84-3.03-2.44-7.14-2.88-10.77-4.06h0Z"/>
          </g>
          <g>
            <path class="cls-24" d="M115.12,107.02l-11.57,16.02-14.54,2.77s2.57,2.08-.99,6.33-4.45,10.98-2.67,11.37,37.96-6.6,50.17,4.87l.77-1.11s-.1-4.4,3.56-8.38,7.29-9.42,7.29-9.42l-23.31-11.77-8.7-10.68Z"/>
            <path class="cls-6" d="M123.3,124.2s10.42,8.24,9.69,10.09-8.18,4.29-5.47,7.19,6.73,7.91,8.04,7.52,1.12-1.71,1.58-4.88,6.26-8.51,6.92-10.22,2.11-7.19-1.38-8.57-19.38-1.12-19.38-1.12Z"/>
            <path class="cls-6" d="M115.62,108.8l-15.28,16.07-11.32,2.92s.35,2.97.35,3.12,19.24-.84,20.62-2.52,6.53-3.96,6.53-3.96l1.19-18.1-2.08,2.47Z"/>
            <path class="cls-39" d="M85.78,143.38s-.99,7.71,0,7.52,15.1-8.37,46.48.73c0,0,1.78-1.71,1.58-2.64s-5.67-7.19-17.74-6.99-23.67-.2-30.33,1.38Z"/>
            <path class="cls-18" d="M117.35,142.59s3.72,3.84,2.73,6.29c0,0,10.13,3.07,11.05,2.87s2.19-2.14,2.25-2.75-6.2-8.33-16.03-6.42Z"/>
            <polygon class="cls-1" points="94.45 143.31 92.89 148.59 105.83 147.34 105.83 142.29 94.45 143.31"/>
            <path class="cls-6" d="M88.02,143.31s2.37-4.29,6.4-4.42,10.75,1.65,13.19,1.52,16.85,2.84,17.72,2.89-15.2-3.06-37.3,0Z"/>
            <path class="cls-47" d="M89.01,127.25l.28,3.02s-7.6,10.67-3.94,13.24c0,0,37.19-4.48,45.64,1.82,0,0,3.47,4.17,4.78,3.58s.84-5.26,1.94-6.41,4.14-7.13,6.62-9.39c1.5-1.36,1.21-3.98,1.21-3.98"/>
            <path class="cls-47" d="M85.11,143.71s-.52,7.07.4,6.7,21.1-4.97,30.55-2.3c0,0,13.32,2.93,15.81,3.64,0,0,1.81-1.16,2.25-2.75"/>
            <line class="cls-47" x1="94.31" y1="142.92" x2="92.65" y2="149.28"/>
            <line class="cls-47" x1="105.83" y1="142.29" x2="105.83" y2="147.03"/>
            <path class="cls-46" d="M86.96,134.01s-.23-.02-2.1-.98-3.09-3.73-3.09-3.73c0,0,6.85-2.11,7.08-1.6s-1.89,6.31-1.89,6.31Z"/>
          </g>
          <g>
            <path class="cls-11" d="M8.74,34.49s-.49-1.26-2.06-1.81-3.94-1.61-4.27-1.02-.69,2.08,0,2.47,5.84.56,6.33.36Z"/>
            <path class="cls-11" d="M10.45,30.96s-1.25-1.12-1.29-.43-1.35.69,0,1.91,1.38,2.55,3.56,2.66,3.82-.14,3.99-.1.86-1.01-.54-1.39-6.81-3.36-6.81-3.36"/>
            <path class="cls-61" d="M106.25,87.73s-24.75,41.93-24.42,41.14,23.8-3.56,23.8-3.56l10.88-14.64-2.57,15.43s20.18-.79,27.89,1.38c7.71,2.18,15.23,12.66,15.25,11.27s3.74-22.15,8.68-34.81,2.42-17.31,2.42-17.31c0,0-2.77-5.49-4.1-7.52s-4.35-5.84-8.11-7.71-10.64,2.05-10.64,2.05c0,0-41.68-12.83-54.14-16.98,0,0,5.41,8.44-9.36,22.42,0,0,61.58,21.63,66.33,26.64"/>
            <path class="cls-9" d="M91.02,66.77s-1.24,5.14,5.22,7.52,42.86,13.58,51.82,17.93c0,0,2.51-2.37,7.12,3.16s8.31,9.1,6.73,12.13-8.18,9.36-12.26,5.93-.38-7.19-1.62-8.9c-1.91-2.64-36.02-15.83-47.67-19.71-12.26-4.09-19.52-6.47-17.77-6.62,3.09-.27,8.44-11.44,8.44-11.44Z"/>
            <path class="cls-11" d="M88.16,52.26l-29.41-9.53s-4.18.77-5.17-.4-20.66-15.24-20.66-15.24c0,0-1.36-1.08-1.76,0-1.9,5.11,3.67,8.94,5.34,10.44s-3.62-1.4-3.62-1.4c0,0-13.8-.87-23.08-1.11-4.53-.12-7.98-.09-8.23.26-.77,1.07-2.18,3.12,3.03,3.77s64.84,24.35,64.84,24.35l19.94,7.28s6.14-12.06-1.21-18.43Z"/>
            <path class="cls-3" d="M90,69.93l-30.86-12.36s-1.09-10.58-3.26-9.2-1.78,7.62-4.05,6.82-19.98-9.59-22.35-11.57-6.6-2.67-11.01-3.36-5.04-.79-5.04-.79l-.96.46s9.84,12.35,24.15,16.89c6.71,2.43,36.31,19.98,36.31,19.98,0,0,7.25,3.77,9.91,1.18s7.18-8.05,7.18-8.05Z"/>
            <path class="cls-47" d="M38.97,40l-.46-.46s-.79-1.71-3.96-3.03c-2.89-1.21-26.23-1.69-31.42-1.52-.49.02-.82.04-.95.07-1.58.33-1.71,1.85-1.05,2.97s11.34,1.91,11.34,1.91c5.8,8.57,17.41,14.97,20.7,15.82s10.15,3.49,10.15,3.49c0,0,13.52,8.11,25.05,15.03,11.54,6.92,13.45,4.62,13.45,4.62,0,0,6.07-5.41,8.18-8.97s1.19-9.76,1.19-13.45-3.03-4.22-3.03-4.22c0,0-28.95-9.49-30.66-9.89s-3.43,1.19-4.35-.59c-.84-1.62-18.57-13.57-21.74-15.7-.23-.16-.55-.02-.59.26-.27,1.59-.74,6.07,1.85,8.19l3.19,2.61"/>
            <path class="cls-47" d="M18.46,35.18s-6.92-5.07-9.89-5.01c0,0-1.17,1.35,2.28,4.33"/>
            <path class="cls-47" d="M2.86,35s-2.27-2.18-.81-3.37c.73-.59,3.16.25,5.42,1.25s4.33,2.14,4.33,2.14"/>
            <path class="cls-47" d="M57.86,52.13c.14-.26-.48-5.1-1.52-3.63s-3.02,6.62-4.56,7.55-4.3,1.12-4.48,1.03"/>
            <path class="cls-47" d="M12.73,39.27c.33,0,7.12,1.25,12.07,3.23"/>
            <path class="cls-47" d="M91.77,56.35s29.75,10.35,40.43,13.25,10.95.33,13.45,4.35,7.52,8.7,7.52,8.7"/>
            <path class="cls-47" d="M147.14,104.73c1.71,1.46,3.79,5.68,3.79,5.68"/>
          </g>
          <path class="cls-60" d="M113.01,90.17l-17.08,29.93,6.99-.73,6.86-10.95,15.54-.07,1.27,12.79,10.15-1.65-.59-10.55s6.16-4.24,5.7-6.22-28.84-12.57-28.84-12.57Z"/>
          <path class="cls-42" d="M117.93,93.77l-3.59,6.71c-.33.62.12,1.37.82,1.37h18.52c.41,0,.78-.27.89-.67l.25-.87c.13-.46-.11-.95-.56-1.13l-15.17-5.84c-.44-.17-.93.02-1.15.43Z"/>
        </g>
      </g>
      <path class="cls-62" d="M86.49,289.78s10.72,4.72,15.62,7.62,7.34,4.15,7.34,4.15l-9.43-26.04s-8.43,10.18-13.53,14.27Z"/>
      <polygon class="cls-17" points="102 283.18 93.16 292.01 87.54 289.79 99.76 277 102 283.18"/>
      <path class="cls-43" d="M121.26,323.58s-4.35-3.62-4.62-1.12,9.49,26.77,10.68,28.88,1.71,2.24.53,3.96,2.51,19.52,1.85,22.81-1.05,8.18-1.98,10.15-6.86,14.11.4,15.03,20.18.4,22.81-1.19,6.99-5.54,7.25-10.55-1.32-19.91.92-23.47,2.9-8.97,1.32-11.87-5.27-6.33-6.46-13.98c-1.19-7.65-7.42-24.66-7.12-26.77s-5.79,3.44-8.44,4.62-4.35,6.59-17.14,3.49Z"/>
      <path class="cls-17" d="M118.98,322.46s-.79-.46-1.29-.4-.81-.36-.19,2.23,2.3,7.4,7.25,8.26,7.32.43,10.35-1.55,7.85-6.07,8.24-5.04.26,11.7,2.74,16.15-.3,8.6-2.27,10.29-11.72,5.24-11.7,6.53,1.81,3.86,7.34,3.66,9.3.1,9.89-1.09,1.78-2.97,1.98-.79-3.9,5.8-3.17,9.36,1.85,10.81,1.72,12-4.62-.99-5.21,0,.07,2.57,2.04,5.47,3.49,6.46,3.66,7.12.76,1.58-2.37,1.09-6.1-.3-10.32,2.08-7.65,2.44-10.09,2.11-2.77-.86-2.84-.26.53,3.69,8.57,3.82,14.11-.73,15.16-.92,3.89-1.38,4.42-2.11,4.29-5.74,4.62-6.99.59-5.14.4-8.44-.46-8.11-.26-9.89c0-2.24.13-5.34.66-5.93s1.65-3.69,1.91-4.22,1.16-5.89.27-7.67-3.63-5.69-4.33-7.07c-.82-1.61-2.2-4.87-2.5-7.42-.52-2.62-2.6-11.09-2.99-12.16-1.02-3.16-4.43-13.97-4.2-15.09-.1-.3-1.85.73-3.89,2.24-2.08,1.52-6.03,3.96-6.89,4.81-1.15.79-3.69,2.67-8.37,2.27-1.75-.13-4.68-.56-5.47-.86s-1.22-.43-2.87-1.58Z"/>
      <path class="cls-4" d="M148.82,352c-2.38,3.38-4.76,7.14-8.38,9.3-1.88.5-3.85.22-5.73-.07,1.85.05,3.8.18,5.57-.33,3.29-2.08,5.92-6.04,8.54-8.9h0Z"/>
      <path class="cls-4" d="M128.64,386.28c3.7-3.88,9.89-5.99,14.74-2.93,2.31,1.38,4.55,2.89,6.65,4.58,1.68,1.47,6.59,5.22,5.21,7.71-4.81,6.48-21.95,6.04-29.51,5.81,7.69-.09,23.36.11,28.82-5.65,1.92-2.17-3.27-6.13-4.81-7.51-2.07-1.69-4.3-3.18-6.56-4.6-4.7-3.05-10.78-1.09-14.54,2.6h0Z"/>
      <path class="cls-4" d="M144,312.44c-.88,1.87-2.05,3.55-3.49,5.02.88-1.87,2.05-3.55,3.49-5.02h0Z"/>
      <path class="cls-4" d="M155.87,349.72c.8,4.62,1.31,9.26,2,13.89.12,1.38.74,3.19,1.23,4.47-1.61-2.75-1.89-5.95-2.36-9.04-.39-3.1-.74-6.2-.87-9.33h0Z"/>
    </g>
    <path class="cls-46" d="M157.17,138.84c.1.09.05.25-.08.27-2.38.29-18.98,5.08-19.34,4.2-.4-.96,8.69-10.99,8.82-12.19.12-1.09,8.95,6.32,10.61,7.72Z"/>
    <path class="cls-4" d="M100.16,146.81c-2.9,8.31-6.32,16.87-9.72,24.97.18,1.57.94,5.3,1.79,7.47,0,0,1.39,3.76,1.39,3.76.46,1.26.93,2.51,1.36,3.78-2.22-4.94-5.1-9.86-5.41-15.37,3.27-8.16,6.84-16.66,10.59-24.61h0Z"/>
    <path class="cls-4" d="M101.74,174.31c-3.48,5.63-7.44,11.76-7.55,18.57.49,2.91.97,6.5,1.28,9.65.33,3.25.6,6.5.72,9.76-.52-3.22-.98-6.45-1.46-9.67-.5-3.24-.98-6.47-1.52-9.69.08-7.06,4.32-13.28,8.54-18.62h0Z"/>
  </g>
  <g>
    <g>
      <g>
        <g>
          <path class="cls-59" d="M230.63,350.96s6.68,6.78,16.18,10.87,20.31,8.84,27.03,3.03c5.54-4.09,12-14.11,11.6-14.64s-5.47,4.22-9.4,2.51-9.73-6.99-9.2-14.24c0,0-1.19-7.65,6.99-11.6s19.12-4.48,24,7.78-5.27,30.33-12.13,35.34-19.52,13.45-54.07-5.67c0,0-8.62-12.64-1.01-13.38Z"/>
          <path class="cls-56" d="M277.19,361.85c4.75-4.74,8.26-11.63,8.26-11.63,0,0-5.47,4.22-9.4,2.51s-9.73-6.99-9.2-14.24c0,0-1.19-7.65,6.99-11.6s19.12-4.48,24,7.78-5.27,30.33-12.13,35.34c0,0-5.8-6.71-8.52-8.15Z"/>
          <path class="cls-4" d="M281.64,337.17c6.87,2.9,7.94,10.03,2.88,15.31-.28.29-.54.65-.94.78.59-.52.92-1.29,1.3-1.99,3.39-5.49,1.87-10.45-3.25-14.1h0Z"/>
        </g>
        <path class="cls-21" d="M233.62,363.15s18.26,9.76,18.76,9.89-7.85-2.08-18.76-8.18c0,0,.54-.46,0-1.71Z"/>
      </g>
      <path class="cls-59" d="M262.78,292.97s33.75-4.92,40.27-3.54c0,0,1.09-6.13,6.13-6.33s7.62,2.72,7.57,5.34-.49,4.2-3.07,5.98c0,0,6.84.93,5.92,7.47-.72,5.08-3.69,4.85-4.88,5.14s-3.51.17-5.49-1.35c0,0,1.73,4.42.15,5.65s-5.44,1.88-7.66,0-3.71-5.88-4.25-7.96l-.54-2.08s-43.56,1.68-45.35,2.52,11.2-10.85,11.2-10.85Z"/>
      <path class="cls-59" d="M174.02,291.74c-.93-1.29-34.68-6.66-38.11-7.45s-8.07-8.95-14.64-5.01c-3.3,1.98-2.37,5.93-1.32,7.25,0,0-3.43.53-5.54,3.82s-.8,7.78,2.76,8.57,6.22,0,6.22,0c0,0-2.65,5.67,1.04,6.86s8.04,2.11,12.13-5.27c0,0,1.19-2.11.79-4.35,0,0,38.77,2.51,41.67,3.56,0,0-2.77-4.88-5.01-7.98Z"/>
      <path class="cls-22" d="M210.18,293.59s-7.62,6.08-8.38,8.85l1.69,5.29s1.7-7.32,9.4-9.82c9.07-2.95,17.58,1.81,20.67,7.05.43.73.96,3.63.96,3.63l2.39-5.64s-3.05-7.38-7.66-9.2c0,0-10.71-5.44-19.05-.16Z"/>
      <g>
        <path class="cls-59" d="M201.2,314.6s-7.44,25.08-6.55,25.67-6.82-2.77-10.29.99l-3.46,3.76s-1.98-1.48-2.47-3.76-11.18-24.3-13.55-25.8-8.9-4.07-10.29-2.29c0,0-7.89.73-6.43,5.54,0,0-3.45,1.09-1.95,5.52,0,0-.94,3.51,2.81,6.08s11.74,14.24,12.86,16.15,13.38,24.92,15.03,26.24,5.41,2.04,6.86.79,3.82-6.07,4.09-8.57-.2-12.13.86-12.99,9.59-2.97,13.55-1.38,15.03,5.93,15.92,7.32,6.13,9.89,4.15,13.25-3.46,3.66-3.46,3.66c0,0-3.76-4.15-5.04-4.45s-5.84-1.78-6.92,1.38c-1.19,3.46-2.37,5.74.3,13.85s7.42,22.65,7.42,26.6-.79,14.93.2,16.12,4.85,3.86,5.93,3.76,1.78-.59,2.47-.99.59,1.29,2.47.99,4.15-.6,4.35-1.49,1.58.99,2.57-.3,2.47-2.47,1.48-7.12-8.6-34.02-9.3-35.21,6.33-6.63,7.22-11.08.59-11.57,1.29-12.46-4.71-7.98-4.45-10.09,6.96-9.89,8.23-14.64.58-22.18,0-24.74-12.01,7.55-35.9-.34Z"/>
        <ellipse class="cls-64" cx="174.58" cy="359.86" rx="2.94" ry="7.57" transform="translate(-156.54 135.5) rotate(-30)"/>
        <path class="cls-20" d="M163.23,347.83s12.88-5.66,13.57-9.2c0,0-.68-1.75-1.2-2.84s-7.8-16.1-10.47-19.66c0,0-5.71-3.15-8.74-3.09,0,0-1.34-.1-1.53.61,0,0-4.76.19-6.23,2.98,0,0-.42,1.05.15,2.37,0,0-3.62.76-2.06,5.23,0,0-.8,2.39,1.46,4.64,0,0,2.38,1.93,2.62,2.35.79.72,7.54,8.31,8.9,11.15,1.51,2.18,3.54,5.46,3.54,5.46Z"/>
        <path class="cls-48" d="M163.11,348.13s13.47-6.35,14.29-9.99"/>
        <path class="cls-2" d="M155.07,313.34c-.44.27-.64.56-.64,2.06s.49,6.55,1.46,7.54,3.09-2.16,5.4,2.69,9.37,17.77,9.37,17.77c0,0,5.59-3.49,6.09-4.91,0,0-8.96-19.82-11.61-22.35,0,0-7.42-4.4-10.07-2.79Z"/>
        <path class="cls-2" d="M153.86,313.76s-6.72.57-5.08,5.25,5.05.78,5.08,0,0-5.25,0-5.25Z"/>
        <path class="cls-2" d="M148.78,319s-3.7.39-2.06,5.23c0,0,.45-1.15,2.2-.16,0,0-1.21-3.04-.14-5.07Z"/>
        <ellipse class="cls-64" cx="157.5" cy="320.25" rx="2.87" ry="5.27" transform="translate(-139.02 121.66) rotate(-30)"/>
        <ellipse class="cls-64" cx="151.67" cy="323.38" rx="2.33" ry="4.78" transform="translate(-141.37 119.16) rotate(-30)"/>
        <ellipse class="cls-64" cx="149.27" cy="327.92" rx="1.91" ry="4.18" transform="translate(-143.96 118.57) rotate(-30)"/>
        <path class="cls-64" d="M154.43,313.34s-.76,1.95-.52,4.12"/>
      </g>
      <path class="cls-7" d="M212.28,399.99l15.22-.77s7.63,24.97,6.33,28.15c-.33.8-1.21,2.92-2.09,2.91-.39,0-.22-.02-1.42-.44-.17-.06-.53,0-.71.63,0,0-.3.73-4.38,1.19,0,0-.56-.03-1.24-.92,0,0-.45-.49-1.15-.02l-.71.48s-1.12.43-1.62.36c0,0-5.09-2.44-5.46-3.69-.45-2.77-.21-7.75-.13-10.14s.18-5.45.18-6.1c.02-1.9-2.82-11.64-2.82-11.64Z"/>
      <path class="cls-51" d="M223.8,420.51s1.15,6.07.18,10.22"/>
      <path class="cls-51" d="M228.93,419.49s1.95,6.96,1.4,10.6"/>
      <line class="cls-51" x1="211.88" y1="400.25" x2="227.5" y2="399.21"/>
      <path class="cls-12" d="M215.89,400.31s4.93,4.28,3.29,30.57c0,0-4.04-1.88-4.18-3.36s-.68-12.16.09-16.11l-2.81-10.94,3.61-.16Z"/>
      <path class="cls-21" d="M202.96,315.64s3.91,7.92,14.44,7.62,13.84-2.54,16.27-4.14c1.97-1.3,3.02-4.22,3.02-4.22,0,0-19.68,4.8-33.73.74Z"/>
      <g>
        <ellipse class="cls-59" cx="218.89" cy="278.82" rx="47.18" ry="38.59"/>
        <path class="cls-4" d="M182.99,266.22c1.42-1.63,3.01-3.11,4.74-4.44,1.82-1.31,3.67-2.69,6.07-2.73,1.15.13,2.15.8,3.16,1.3,2.82,1.61,5.48,3.47,7.99,5.54,0,0-5.62-3.18-5.62-3.18-1.84-.92-3.59-2.19-5.59-2.66-.91-.05-1.91.35-2.83.78-2.86,1.42-5.4,3.44-7.92,5.39h0Z"/>
        <g>
          <line class="cls-25" x1="203.62" y1="261.02" x2="206" y2="263.45"/>
          <path class="cls-4" d="M203.62,261.02c1.27.33,2.09,1.16,2.37,2.44-1.27-.32-2.08-1.16-2.37-2.44h0Z"/>
        </g>
        <path class="cls-44" d="M243.61,252.15c-2.52,0-13.1,6.08-13.35,13.25-.08,2.33,6.43,13.25,10.38,12.81s12.07-4.4,14.54-7.76c.98-1.34,1.52-2.93-.59-8.21-.26-.66-4.55-10.08-10.98-10.09Z"/>
        <ellipse class="cls-4" cx="239.68" cy="266.97" rx="2.3" ry="9.15"/>
        <ellipse class="cls-32" cx="239.68" cy="264.02" rx=".77" ry="3.89"/>
        <path class="cls-52" d="M196.63,280.43s4.65,35.8,14.93,38.87,17.51-.4,20.18-5.04,10.48-17.7,10.78-29.77c0,0-12.76-9-45.89-4.05Z"/>
        <path class="cls-44" d="M237.1,282.21s.41,6.53,1.24,6.4,3.82-3.85,3.94-4.28-5.17-2.11-5.17-2.11Z"/>
        <path class="cls-44" d="M204.34,279.49s-1.97,5.35-3.11,5.44-3.29-1.21-4.02-4.59l7.12-.86Z"/>
        <path class="cls-65" d="M201.26,302.35s6.78-11.2,15.62-11.46,14.31,2.63,16.55,5.73,3.85,5.76,3.95,6.27-5.46,14.67-11.03,16.09-18.74,6.77-25.08-16.63Z"/>
        <path class="cls-48" d="M186.22,277.82s-.99,3.03,3.36,3.3,15.96-2.08,19.71-2.04,14.69-.15,17.8.54,12.17,2.72,16.57,5.09c.49.26,1.03.42,1.58.49,1.55.18,4.51.39,5.32-.12.37-.24,2.48-1.98-.85-3.74"/>
        <path class="cls-55" d="M232.35,241.42s19.07-13.5,27.97-11.33c0,0,7.13,4.74,4.95,19.98l-2.18,15.23s-4.89-16.86-30.73-23.89Z"/>
        <path class="cls-41" d="M258.67,257.72c.94,1.11.26-11.53-3.34-16.48-.38-.52-.95-.86-1.6-.92-1.55-.15-4.96.33-11.67,4.37,0,0,9.99,5.2,16.6,13.03Z"/>
        <path class="cls-55" d="M207.14,240.92c8.68-2.45-24.29-15.51-26.33-14.56-10.1,4.72-5.6,37.85-5.6,37.85,0,0,4.51-15.55,31.93-23.29Z"/>
        <path class="cls-59" d="M209.89,246.05s-9.36-19.25-19.38-25.38c0,0,15.56,8.7,21.03,22.15"/>
        <path class="cls-59" d="M226.24,243.74s13.65-19.25,20.24-19.71c0,0-16.35,18.4-17.08,22.75"/>
        <path class="cls-59" d="M261.84,276.77s24.53-.55,30.46,8.16c0,0-12.53-5.79-30.46-4.87"/>
        <path class="cls-59" d="M262.04,284.94s27.89,13.66,29.74,20.75c0,0-24.2-16.06-31.45-15.27"/>
        <path class="cls-59" d="M176.66,288.48c-.53-.23-26.96,10.98-29.17,13.02,0,0,21.79-16.38,27.33-17.06"/>
        <path class="cls-59" d="M175.34,277.82s-22.55,1.7-31.32,7.11c0,0,14.84-9.48,29.74-11.33"/>
        <path class="cls-41" d="M199.73,242.88s-9.93-8.66-14.11-6.66c-2.88,1.38-4.55,15.82-4.09,18,0,0,14.84-11.6,18.2-11.34Z"/>
        <rect class="cls-49" x="211.54" y="225.84" width="14.7" height="28.78" rx="7.35" ry="7.35"/>
        <path class="cls-15" d="M225.32,230.75l-12.81,18.92s.64,1.58.99,1.78,12.25-16.97,12.25-16.97c0,0,.16-2.29-.43-3.74Z"/>
        <path class="cls-29" d="M212.51,249.67c-1.12-2.21-.47-10.6-.47-10.6l9.63-12.12s2.48.92,3.64,3.8"/>
        <line class="cls-48" x1="211.64" y1="232.27" x2="225.91" y2="232.27"/>
        <line class="cls-48" x1="211.5" y1="236.42" x2="226.24" y2="236.42"/>
        <line class="cls-48" x1="225.77" y1="241.96" x2="211.57" y2="241.96"/>
        <line class="cls-48" x1="211.54" y1="246.77" x2="225.91" y2="246.77"/>
      </g>
      <path class="cls-21" d="M215.49,399.73s-7.85-23.96-5.11-25.31c4.5-2.22,8.21,3.43,8.21,3.43,0,0,7.66-1.75,6.43-10.53-.91-6.49-3.6-12.75-11.52-17.55-4.9-2.97-15.4-6.24-21.67-2.57s-6.47,3.43-6.6,8.18-.13,11.87-2.51,9.76-11.54-20.79-11.54-20.79c0,0-4.24,2.41-7.68,4.14l9.16,16.65s4.15,6.85,4.52,7.2,5.31,2.52,6.59.68,3.46-6.16,3.59-7.78,0-12.43.69-13.15,6.96-2.8,9.82-2.57c2.9.23,17.77,5.34,19.81,7.55,0,0,.73.1,1.62,1.81s3.16,5.74,3.49,7.81.66,4.35-1.19,6.3-2.7,2.51-2.93,2.27-3.89-4.25-4.95-4.45c-.99-.23-5.03-1.43-6.13.33,0,0-1.98,4.19-1.48,7.52.58,3.91,6.15,21.09,6.15,21.09h3.21Z"/>
      <path class="cls-4" d="M194.35,339.15c1.41,1.22,2.12,2.48,3.17,3.99-1.82-.3-3.07-2.23-3.17-3.99h0Z"/>
      <path class="cls-4" d="M221.02,373.6c-.95,1.5-3.24,2.58-4.85,1.49,1.85-.03,3.16-.84,4.85-1.49h0Z"/>
      <path class="cls-48" d="M180.43,344.61s1.69,7.32,2.28,10.06"/>
      <ellipse class="cls-64" cx="174.93" cy="360.41" rx="2.68" ry="6.87" transform="translate(-138.37 110.73) rotate(-25.56)"/>
    </g>
    <path class="cls-26" d="M203.36,307.24s6.68-11.52,17.31-9.89c9.86,1.51,14.55,8.27,14.14,10.58l2.14-4.89s-4.38-10.31-12.22-11.23c0,0-13.28-5.56-22.92,10.63,0,0,.77,3.81,1.56,4.8Z"/>
  </g>
  <g>
    <g>
      <path class="cls-45" d="M343.01,217.84l5.93,16.9-9.56-5.11-8.16,29.74s40.53,28.29,44.36,27.5,15.99-12.86,16.38-15.33.82-2.67-.89-10.32-11.08-40.35-11.08-40.35l-3.96-7.17-30.56-4.91-2.47,9.06Z"/>
      <path class="cls-37" d="M359.11,225.2s13.32,47.54,17.23,49.92,8.37,4.19,8.37,4.19c0,0,6.66-6.02,7.1-9.05.24-1.68-.69-9.45-6.33-29.36l-5.64-19.91s-8.09-2.04-20.74,4.21Z"/>
      <path class="cls-4" d="M349.39,235.38c2.5,4.45,4.68,9.06,6.64,13.77.93,2.45,1.99,4.72,2.37,7.38.23,2.57-1.41,5.11,0,7.48-.9-.96-1.01-2.43-.91-3.68.81-3.86-.97-7.29-2.38-10.8-1.66-4.08-4.19-10.08-5.71-14.15h0Z"/>
      <path class="cls-48" d="M347.95,231.35c.12-.27,20.82-14.13,32.17-10.53"/>
      <path class="cls-8" d="M343.31,217.1l4.65,13.68s19.19-12.81,31.1-10.68l-3.41-6.06s-9.03.62-30.07-5.02c0,0-1.48,5.44-2.27,8.08Z"/>
      <g>
        <path class="cls-63" d="M312.34,200.24s-13.31,68.23-15.69,72.31-2.51,6.57-3.03,12.38-15.36,68.25-17.57,78.04-9.46,21.92-8.27,24.43,5.41,11.6,6.99,10.95,4.35-1.05,4.35-1.05c0,0-.41,10.42,5.33,14.51s18.27,8.44,19.98,8.7,5.41.53,4.35-8.04-10.55-33.95-8.84-38.87,3.03-3.98,3.16-5.5-.26-8.24.4-11.41,14.37-48.76,14.37-48.76l28.09-102.3s-29.95-8.08-33.63-5.39Z"/>
        <g>
          <path class="cls-42" d="M332.4,151.1c-.33.35-21.24,18.33-22.03,49.71,0,0,11.01-.53,21.46,3.16s16.91,5.41,18.89,5.93,23.44,5.27,25.76,3.3c0,0-.36-37.36-2.16-45.52-.04-.19-.08-.36-.13-.52-1.91-6.93-37.11-21-41.79-16.07Z"/>
          <path class="cls-40" d="M331.83,133.86s4.45,10.98,1.98,17.11c0,0,16.25-.09,29.36,12.83.62.61,1.35,1.1,2.16,1.4,2.19.81,6.56,2.34,7.44,1.9,0,0-1.98-31.15-4.45-35.21,0,0-33.53-2.08-36.49,1.98Z"/>
          <path class="cls-14" d="M342.04,132.18s-3.34,15.23,0,19.38c0,0-5.45-1.14-7.67-1.04,0,0,.6-1.41.65-2.79s-.21-5.74-.65-7.32-1.73-5.96-1.97-6.38c0,0,6.26-1.76,8.6-1.68l1.04-.17Z"/>
          <g>
            <g>
              <g>
                <polygon class="cls-66" points="302.38 50.27 302.01 62.46 318.62 64.86 318.88 55.15 302.38 50.27"/>
                <path class="cls-54" d="M326.13,58.72s13.84-7.96,13.99-9.66,1.18-11.17,2.44-15.24-.85-19.4-5.16-23.91-10.9-8.87-17.26-8.58-22.87,4.37-24.87,12.51c-2,8.14-1.85,15.1-.89,18.43.96,3.33-.96,11.77,3.7,15.39,4.66,3.63,19.24,12.39,19.24,12.39,0,0,3.55,1.22,8.81-1.33Z"/>
                <path class="cls-31" d="M298.73,9.25s4.33-1.22,4.38.67-9.27,18.19-3.5,27.3c5.77,9.11,9.21,19.38,14.26,20.35,0,0-17.65-10.02-18.26-14.18s-1-10.99-1.22-12.82-2.5-16.43,4.33-21.31Z"/>
                <path class="cls-33" d="M302.85,23.02s4.01-.89,7.26,1.1,4.26,2.81,4.26,2.81c0,0-.53,5.05-1.01,5.19s-7.22.63-7.22.63c0,0-2.54-2.3-3.4-7l-1.01-2.62,1.11-.11Z"/>
                <path class="cls-10" d="M308.06,23.3l4.61,2.12s-.43,6.58-1.15,6.75-2.43,0-2.43,0c0,0-1.78-5.77-1.03-8.87Z"/>
                <path class="cls-33" d="M308.22,26.24s3.57,3.77,3.88,2.96.48-3.67.48-3.67l-4.33-1.79-.02,2.5Z"/>
                <path class="cls-4" d="M314.81,27.33c-4.05-2.92-8.77-4.5-13.79-3.98,0,0,.35-.86.35-.86.92,1.23,1.66,2.69,1.62,4.23-.61-1.69-1.84-3.04-3.09-4.25,1.62-.21,3.25-.49,4.89-.42,3.89.2,7.63,2.25,10.02,5.28h0Z"/>
                <path class="cls-50" d="M308.06,23.85s-.66,5.48,1.16,8.55"/>
                <path class="cls-50" d="M312.67,25.59c0,.07-.45,6.32-1.15,6.58"/>
                <path class="cls-4" d="M313.18,32.15c-2.42.51-4.85.48-7.26.87-.2-.41-.43-.81-.61-1.24.3.31.57.64.85.96l-.2-.07c2.26-.98,4.83-.97,7.22-.52h0Z"/>
                <path class="cls-4" d="M308,26.01c1.08.75,2.07,1.71,3.03,2.58.33.28.63.61,1.06.73-.48.09-.91-.2-1.29-.42-1.14-.74-2.08-1.73-2.8-2.89h0Z"/>
                <path class="cls-4" d="M315.45,25.88c-1.48-.59-2.71-1.43-3.81-2.58,1.43.56,2.75,1.46,3.81,2.58h0Z"/>
                <path class="cls-4" d="M317.14,25.22l-3.31-2.35c-3.28-2.52-7.36-3.17-11.02-4.93,2.63.7,5.18,1.58,7.74,2.44,2.54,1.09,4.57,3.01,6.6,4.83h0Z"/>
                <path class="cls-33" d="M340.37,24.66l-.56,1.51s-.01.04-.02.06c-.12.42-1.5,5.33-2.13,6.08-.38.46-.81.76-1.1.94-.2.12-.45.16-.68.09l-4.97-1.41c-.33-.09-.58-.38-.61-.72-.07-.64-.09-1.9.2-4.28.03-.27.19-.51.42-.64,1.19-.67,6.15-2.63,9.7-2.7.6-.01-.05.52-.26,1.08Z"/>
                <path class="cls-32" d="M335.23,24.1l-.13,4.4s-2.64.23-2.83-.84-.11-2.53.97-3.07c1.44-.73,2-.49,2-.49Z"/>
                <polygon class="cls-10" points="334.98 28.57 332.05 27.76 331.89 31.87 334.5 32.75 334.98 28.57"/>
                <path class="cls-4" d="M330.23,26.65c3.09-4.27,9.16-4.44,13.95-3.95,0,0-1.7.82-1.7.82-1.26.68-2.21,1.84-2.89,3.13.18-1.61,1.05-3.09,2.38-4.03,0,0,.24.98.24.98-4.12.25-8.5.6-11.98,3.06h0Z"/>
                <path class="cls-4" d="M338,31.71c-.38.71-.81,1.38-1.29,2.01-1.13-.32-2.25-.69-3.36-1.06,0,0-3.13-1.09-3.13-1.09,2.26-.09,4.43.66,6.48,1.53,0,0-.33.09-.33.09.5-.52,1.05-1.01,1.63-1.47h0Z"/>
                <path class="cls-50" d="M334.34,32.4c.93-.43.89-8.53.89-8.53"/>
                <path class="cls-50" d="M332.27,25.22s-.84,6.13-.17,6.72"/>
                <path class="cls-4" d="M331.77,27.51c1.25.11,2.26.84,3.44,1.07-.27.22-.64.16-.94.12-.93-.16-1.78-.56-2.49-1.19h0Z"/>
                <path class="cls-23" d="M325.13,34.19c.08-.02,1.33.48,1.33.48,0,0,.04,3.26.85,3.52,0,0-2.11,1.92-2,2.7s-5.77-2.07-3.44-4,2.12-2.44,3.26-2.7Z"/>
                <path class="cls-4" d="M326.26,33.38c.3,1.43.19,3.36.95,4.56,0,0,.38.17.38.17-.75.66-1.53,1.33-2.12,2.14-.16.24-.32.5-.31.8-.1-.3.02-.63.13-.91.41-.83,1.03-1.53,1.71-2.16,0,0,.1.42.1.42-.37-.14-.45-.4-.56-.61-.49-1.42-.42-2.95-.27-4.42h0Z"/>
                <path class="cls-5" d="M315.66,42.57l13.75,2.16s-8.45,13.12-11.25,11.97c0,0-4.5-7.83-2.5-14.13Z"/>
                <polygon class="cls-38" points="322.65 43.39 326.14 50.05 329.25 44.88 322.65 43.39"/>
                <path class="cls-51" d="M328.87,44.99s-12.88-2.89-13.49-2.05.42,13.88,2.93,13.49,4.68-1.22,10.56-11.43Z"/>
                <path class="cls-58" d="M322.42,43.68s3.28,4.62,3.28,6.42"/>
                <path class="cls-48" d="M326.13,58.72s13.84-7.96,13.99-9.66,1.18-11.17,2.44-15.24-.85-19.4-5.16-23.91c-4.31-4.51-10.9-8.87-17.26-8.58s-22.87,4.37-24.87,12.51c-2,8.14-1.85,15.1-.89,18.43s-.96,11.77,3.7,15.39c4.66,3.63,19.24,12.39,19.24,12.39,0,0,3.55,1.22,8.81-1.33Z"/>
                <ellipse class="cls-35" cx="332.27" cy="8.74" rx=".81" ry="2.82" transform="translate(120.54 264.97) rotate(-51.94)"/>
                <path class="cls-31" d="M297.35,34.97s-1.21-4.17-2.6-3.18-3.54,4.99-2.2,8.21,3.11,5.66,3.11,5.66c0,0,2.58,3.63,2.39.52-.19-3.11.11-3.29-.48-4.07,0,0,.4-5.07-.21-7.14Z"/>
                <path class="cls-51" d="M297.35,34.97s-1.21-4.17-2.6-3.18-3.54,4.99-2.2,8.21c1.34,3.22,3.11,5.66,3.11,5.66,0,0,2.58,3.63,2.39.52-.19-3.11.11-3.29-.48-4.07s-.64-1.93-.59-2.57.03-.18-.47-1.93-2.57-4-2.39,0"/>
                <path class="cls-4" d="M333.71,22.82c-.82.61-1.78,1.04-2.67,1.47-.28.16-.63.26-.78.57-.04-.4.32-.67.57-.89.84-.64,1.83-1.03,2.88-1.15h0Z"/>
                <path class="cls-4" d="M340.63,19.24c-3.63,1.18-7.74,1.62-10.77,4.06,1.15-1.63,3.21-2.31,5.02-2.94,1.87-.57,3.8-.97,5.75-1.12h0Z"/>
              </g>
              <g>
                <path class="cls-24" d="M345.83,96.28l11.57,16.02,14.54,2.77s-2.57,2.08.99,6.33,4.45,10.98,2.67,11.37-37.96-6.6-50.17,4.87l-.77-1.11s.1-4.4-3.56-8.38c-3.66-3.98-7.29-9.42-7.29-9.42l23.31-11.77,8.7-10.68Z"/>
                <path class="cls-6" d="M343.52,99.68s8.46,14.98,9.19,16.83-16.58,11.32-19.28,14.23-6.73,7.91-8.04,7.52-1.12-1.71-1.58-4.88-6.26-8.51-6.92-10.22-2.11-7.19,1.38-8.57,25.26-14.9,25.26-14.9Z"/>
                <path class="cls-6" d="M352.31,93.11l8.31,21.02,11.32,2.92s-.35,2.97-.35,3.12c0,.15-19.24-.84-20.62-2.52s-6.53-3.96-6.53-3.96l-8.82-14.01,16.68-6.57Z"/>
                <path class="cls-47" d="M371.94,116.51l-.28,3.02s7.6,10.67,3.94,13.24c0,0-37.19-4.48-45.64,1.82,0,0-3.47,4.17-4.78,3.58s-.84-5.26-1.94-6.41-4.14-7.13-6.62-9.39c-1.5-1.36-1.21-3.98-1.21-3.98"/>
                <path class="cls-46" d="M373.99,123.28s.23-.02,2.1-.98,3.09-3.73,3.09-3.73c0,0-6.85-2.11-7.08-1.6s1.89,6.31,1.89,6.31Z"/>
              </g>
              <g>
                <path class="cls-11" d="M452.21,23.76s.49-1.26,2.06-1.81,3.94-1.61,4.27-1.02.69,2.08,0,2.47-5.84.56-6.33.36Z"/>
                <path class="cls-11" d="M450.5,20.23s1.25-1.12,1.29-.43,1.35.69,0,1.91-1.38,2.55-3.56,2.66-3.82-.14-3.99-.1-.86-1.01.54-1.39,6.81-3.36,6.81-3.36"/>
                <path class="cls-61" d="M354.71,77c10.85,4.62,7.09,13.61,6.91,17-.79,14.12,17.73,24.66,17.51,24.14-.33-.79-23.8-3.56-23.8-3.56l-5.93-20.58-11.74,19.46s-10.81,1.12-18.53,3.3c-7.71,2.18-15.23,12.66-15.25,11.27s-3.74-22.15-8.68-34.81c-4.95-12.66-2.42-17.31-2.42-17.31,0,0,2.77-5.49,4.1-7.52s4.35-5.84,8.11-7.71,10.64,2.05,10.64,2.05c0,0,41.68-12.83,54.14-16.98,0,0-5.41,8.44,9.36,22.42,0,0-61.58,21.63-66.33,26.64"/>
                <path class="cls-60" d="M323.82,88.73l4.95,23.21,6.86-3.69-2.51-6.63,12.03-8.41,9.03,9.4,6.51-6.33-8.93-7.97s.95-2.57.74-5.93c-.1-1.58-1.26-3.57-1.26-3.57l-27.42,9.92Z"/>
                <path class="cls-9" d="M369.93,56.03s1.24,5.14-5.22,7.52-42.86,13.58-51.82,17.93c0,0-2.51-2.37-7.12,3.16-4.62,5.54-8.31,9.1-6.73,12.13s8.18,9.36,12.26,5.93.38-7.19,1.62-8.9c1.91-2.64,36.02-15.83,47.67-19.71,12.26-4.09,19.52-6.47,17.77-6.62-3.09-.27-8.44-11.44-8.44-11.44Z"/>
                <path class="cls-11" d="M372.79,41.53l29.41-9.53s4.18.77,5.17-.4,20.66-15.24,20.66-15.24c0,0,1.36-1.08,1.76,0,1.9,5.11-3.67,8.94-5.34,10.44s3.62-1.4,3.62-1.4c0,0,13.8-.87,23.08-1.11,4.53-.12,7.98-.09,8.23.26.77,1.07,2.18,3.12-3.03,3.77s-64.84,24.35-64.84,24.35l-19.94,7.28s-6.14-12.06,1.21-18.43Z"/>
                <path class="cls-3" d="M370.95,59.2l30.86-12.36s1.09-10.58,3.26-9.2,1.78,7.62,4.05,6.82,19.98-9.59,22.35-11.57,6.6-2.67,11.01-3.36,5.04-.79,5.04-.79l.96.46s-9.84,12.35-24.15,16.89c-6.71,2.43-36.31,19.98-36.31,19.98,0,0-7.25,3.77-9.91,1.18s-7.18-8.05-7.18-8.05Z"/>
                <path class="cls-47" d="M421.98,29.26l.46-.46s.79-1.71,3.96-3.03c2.89-1.21,26.23-1.69,31.42-1.52.49.02.82.04.95.07,1.58.33,1.71,1.85,1.05,2.97s-11.34,1.91-11.34,1.91c-5.8,8.57-17.41,14.97-20.7,15.82s-10.15,3.49-10.15,3.49c0,0-13.52,8.11-25.05,15.03s-13.45,4.62-13.45,4.62c0,0-6.07-5.41-8.18-8.97s-1.19-9.76-1.19-13.45,3.03-4.22,3.03-4.22c0,0,28.95-9.49,30.66-9.89s3.43,1.19,4.35-.59c.84-1.62,18.57-13.57,21.74-15.7.23-.16.55-.02.59.26.27,1.59.74,6.07-1.85,8.19l-3.19,2.61"/>
                <path class="cls-47" d="M442.49,24.45s6.92-5.07,9.89-5.01c0,0,1.17,1.35-2.28,4.33"/>
                <path class="cls-47" d="M458.09,24.26s2.27-2.18.81-3.37c-.73-.59-3.16.25-5.42,1.25s-4.33,2.14-4.33,2.14"/>
                <path class="cls-47" d="M403.09,41.39c-.14-.26.48-5.1,1.52-3.63s3.02,6.62,4.56,7.55,4.3,1.12,4.48,1.03"/>
                <path class="cls-47" d="M448.22,28.54c-.33,0-7.12,1.25-12.07,3.23"/>
                <path class="cls-47" d="M369.18,45.61s-29.75,10.35-40.43,13.25c-10.68,2.9-10.95.33-13.45,4.35s-7.52,8.7-7.52,8.7"/>
                <path class="cls-47" d="M313.82,94c-1.71,1.46-3.79,5.68-3.79,5.68"/>
              </g>
            </g>
            <path class="cls-46" d="M303.78,128.11c-.1.09-.05.25.08.27,2.38.29,18.98,5.08,19.34,4.2.4-.96-8.69-10.99-8.82-12.19-.12-1.09-8.95,6.32-10.61,7.72Z"/>
          </g>
          <circle class="cls-53" cx="300.28" cy="45.14" r="5.6"/>
          <ellipse class="cls-13" cx="300.1" cy="47.37" rx="2.93" ry="4.37" transform="translate(205.69 336.15) rotate(-80.86)"/>
          <ellipse class="cls-34" cx="301.02" cy="41.64" rx="1.77" ry="3.23" transform="translate(212.12 332.24) rotate(-80.86)"/>
          <circle class="cls-48" cx="300.28" cy="45.14" r="5.6"/>
          <polygon class="cls-4" points="305.99 33.01 304.81 33.44 305.73 32.58 305.99 33.01 305.99 33.01"/>
          <polygon class="cls-4" points="336.97 33.29 337.89 34.15 336.7 33.72 336.97 33.29 336.97 33.29"/>
          <path class="cls-4" d="M363.48,158.55c.86.69,1.02,1.79.3,2.64-.66-.89-.78-1.63-.3-2.64h0Z"/>
          <path class="cls-27" d="M343.43,153.02s-5.56,1.9-5.37,4.61.91,8.04,0,10.02-2.7,19.58-3.49,22.55-.79,6.2.53,9.03,3.03,6.4,3.03,6.4c0,0-10.29-3.49-13.19-4.02s-13.53-1.51-14.04-1.45,2.11-20.51,6.07-26.51c2.39-4.83,8.27-16.01,16.35-22.62,0,0,9.92,1.53,10.11,1.99Z"/>
          <path class="cls-27" d="M370.01,200.55s-.86-2.77-3.16-3.59-21.36-9.64-23.34-10.14-3.63-.32-2.84.69,26.64,15.75,27.89,15.81,1.69-2.18,1.45-2.77Z"/>
          <path class="cls-4" d="M340.47,187.55c5.04,2.24,9.87,4.89,14.67,7.59,4.73,2.8,9.62,5.44,13.88,8.96-4.61-2.84-9.7-5.36-14.37-8.09-4.63-2.64-9.65-5.61-14.18-8.46h0Z"/>
          <path class="cls-4" d="M375.58,203.32c-6.37-1.52-12.63-3.72-18.56-6.54,6.44,1.53,12.56,3.7,18.56,6.54h0Z"/>
        </g>
        <path class="cls-48" d="M309.84,214.89s27.8-1.19,31.95,5.97"/>
        <path class="cls-8" d="M312.62,201.31l-2.57,13.1s26.78-.89,31.52,5.37l3.04-11.08s-18.25-7.79-31.99-7.39Z"/>
        <path class="cls-36" d="M327.33,203.32s-3.51,9.26-3.31,11.44c0,0-11.62-.59-13.97-.35l2.57-13.1s9.37-.23,14.71,2.01Z"/>
        <path class="cls-19" d="M323.82,215.45s-41.03,147.43-35.94,152.64,9.04,3.94,9.04,3.94c0,0,5.04.77,1.29,2.65s-10.78,4.25-9.59,7.52-.99,23.84,6.53,29.18,10.3,6.63,10.49,7.91-10.89-1.88-15.53-4.55-8.8-3.76-10.29-13.55c0,0-.42-3.91-.27-4.43l-4.97,1.21s-6.48-9.15-6.48-11.18,3.56-10.34,3.56-10.34l5.49-15.82,1.63-7.12,7.05-30.45s4.5-19.93,4.96-21.18,3.03-15.43,3.03-15.43c0,0,.66-7.13,1.12-8.64s2.44-5.93,2.44-5.93c0,0,2.97-12.07,3.82-15.36s8.64-41.08,8.64-41.08h13.98Z"/>
        <path class="cls-4" d="M269.23,380.69c2.22,2.34,4.09,4.96,5.76,7.71,1.54,2.77,3.28,5.77,3.21,9.04-1.78-6.13-6-11.13-8.97-16.75h0Z"/>
        <path class="cls-4" d="M302.16,366.87c-.63,1.38-1.32,2.94-2.87,3.46.53-1.45,1.28-3.05,2.87-3.46h0Z"/>
      </g>
    </g>
    <path class="cls-42" d="M329.9,86.25s.81,7.6,2.13,6.81,11.67-4.03,13.4-6.78c.31-.5.75-4.26.49-4.63s-16.01,4.61-16.01,4.61Z"/>
    <polygon class="cls-6" points="347.02 97.93 349.39 94 351.97 102.95 347.02 97.93"/>
    <polyline class="cls-57" points="346.35 99.5 349.39 94 351.58 102.41"/>
  </g>
</svg>