<?xml version="1.0" encoding="UTF-8"?>
<svg id="Calque_1" data-name="Calque 1" xmlns="http://www.w3.org/2000/svg" viewBox="0 0 216 216">
  <defs>
    <style>
      .cls-1 {
        fill: #1a1a1a;
      }

      .cls-1, .cls-2 {
        stroke-width: 0px;
      }

      .cls-2 {
        fill: #ca1517;
      }
    </style>
  </defs>
  <circle class="cls-1" cx="108" cy="108" r="108"/>
  <path class="cls-2" d="M147.07,126.64s12.75-6.01,16.57-22.35.73-32.2-9.38-42.18c-4.26-4.21-9.38-6.56-13.87-7.87-.12-.04-.27-.08-.43-.12-.12-.03-.24-.07-.38-.11-6.71-1.83-10.37-1.89-10.37-1.89H49.49v111.76h34.86v-31.31h28.46l16.62,31.31h37.08l-19.43-37.24ZM119.21,101.06h-34.86v-18.36h34.5c.12,0,.24,0,.36,0,4.91.19,8.83,4.22,8.83,9.17s-3.92,8.99-8.83,9.17Z"/>
</svg>